<svg width="26" height="26" viewBox="0 0 26 26" fill="none" xmlns="http://www.w3.org/2000/svg">
<g id="akar-icons:behance-fill" clip-path="url(#clip0_1_55)">
<g id="Group">
<g id="Clip path group">
<mask id="mask0_1_55" style="mask-type:luminance" maskUnits="userSpaceOnUse" x="0" y="0" width="26" height="26">
<g id="akarIconsBehanceFill0">
<path id="Vector" d="M0 0H26V26H0V0Z" fill="white"/>
</g>
</mask>
<g mask="url(#mask0_1_55)">
<g id="Group_2">
<path id="Vector_2" d="M23.8333 7.58333H16.25V5.41666H23.8333V7.58333ZM25.7032 18.4167C25.2243 19.8217 23.5051 21.6667 20.1771 21.6667C16.8469 21.6667 14.1494 19.7936 14.1494 15.5187C14.1494 11.2829 16.6682 9.10541 20.0709 9.10541C23.4097 9.10541 25.4486 11.0359 25.8938 13.9002C25.9783 14.4484 26.0119 15.1872 25.9967 16.2186H17.3008C17.4417 19.6972 21.0741 19.8066 22.2712 18.4167H25.7032ZM17.3767 14.0833H22.7554C22.6417 12.4074 21.5247 11.6794 20.072 11.6794C18.4838 11.6794 17.6052 12.5114 17.3767 14.0833ZM7.00483 21.6537H0V5.43941H7.53242C13.4647 5.52716 13.5774 11.3371 10.4791 12.9209C14.2285 14.2859 14.3542 21.6537 7.00483 21.6537ZM3.25 11.9167H7.13267C9.84967 11.9167 10.2808 8.66666 6.79467 8.66666H3.25V11.9167ZM6.92358 15.1667H3.25V18.434H6.86942C10.179 18.434 9.97642 15.1667 6.92358 15.1667Z" fill="#567AC5"/>
</g>
</g>
</g>
</g>
</g>
<defs>
<clipPath id="clip0_1_55">
<rect width="26" height="26" fill="white"/>
</clipPath>
</defs>
</svg>
