<svg width="22" height="26" viewBox="0 0 22 26" fill="none" xmlns="http://www.w3.org/2000/svg">
<path id="Vector" d="M0.957336 23.2145C3.2476 25.0231 6.08178 26.0046 9 26C10.5479 26 12.0333 25.7296 13.4079 25.2339V23.9859C12.9849 20.6319 12.2413 17.5552 11.1233 14.6189C10.8287 14.6917 10.5357 14.7749 10.2463 14.8668C7.08814 15.8808 4.13627 18.1653 1.43227 22.2647L0.95907 23.2145H0.957336ZM15.1412 24.4608C16.8168 23.5617 18.275 22.3065 19.4136 20.7835C20.5521 19.2605 21.3432 17.5066 21.7313 15.6451L20.752 15.2031C17.9336 14.3745 15.3076 14.0348 12.8601 14.3104C13.966 17.2917 14.7096 20.4221 15.1343 23.8229C15.1395 23.8576 15.1412 23.8923 15.1412 23.9304V24.4608ZM21.9723 13.8528C22.2011 10.448 21.0767 7.09048 18.8436 4.51013L18.3288 5.0804C16.3008 7.54693 13.9851 9.25773 11.1701 10.4225C11.5376 11.1575 11.8808 11.8976 12.198 12.6481C15.0961 12.2321 18.1433 12.6239 21.2997 13.5581C21.3382 13.5694 21.3759 13.5833 21.4124 13.5997L21.9723 13.8528ZM17.6251 3.27253C15.2492 1.16005 12.1792 -0.00474137 9 -8.45681e-07C7.47814 -8.45681e-07 6.01867 0.259999 4.66147 0.741866L5.05667 1.22373C7.17134 3.77693 8.92547 6.30067 10.3572 8.8816C13.0317 7.80173 15.1516 6.22267 17.0028 3.96413C17.0112 3.95352 17.0199 3.94312 17.0288 3.93293L17.6251 3.27427V3.27253Z" fill="#567AC5"/>
</svg>
