<svg width="26" height="26" viewBox="0 0 26 26" fill="none" xmlns="http://www.w3.org/2000/svg">
<g id="ri:instagram-fill">
<path id="Vector" d="M14.1136 2.16775C14.9042 2.16472 15.6947 2.17266 16.4851 2.19158L16.6952 2.19917C16.9379 2.20783 17.1773 2.21867 17.4666 2.23167C18.6192 2.28583 19.4057 2.46783 20.0958 2.73542C20.8108 3.01058 21.4131 3.38325 22.0155 3.98558C22.5662 4.52682 22.9925 5.18153 23.2646 5.90417C23.5321 6.59425 23.7141 7.38183 23.7683 8.5345C23.7813 8.82267 23.7921 9.06317 23.8008 9.30583L23.8073 9.516C23.8266 10.306 23.8349 11.0961 23.8322 11.8863L23.8333 12.6945V14.1137C23.836 14.9042 23.8277 15.6948 23.8084 16.4851L23.8019 16.6953C23.7932 16.9379 23.7824 17.1773 23.7694 17.4666C23.7152 18.6193 23.5311 19.4057 23.2646 20.0958C22.9933 20.8192 22.567 21.4745 22.0155 22.0155C21.4738 22.5662 20.8187 22.9924 20.0958 23.2646C19.4057 23.5322 18.6192 23.7142 17.4666 23.7683C17.1773 23.7813 16.9379 23.7922 16.6952 23.8008L16.4851 23.8073C15.6947 23.8266 14.9042 23.8349 14.1136 23.8323L13.3055 23.8333H11.8874C11.0968 23.836 10.3063 23.8277 9.51597 23.8084L9.30581 23.8019C9.04864 23.7926 8.79152 23.7818 8.53447 23.7694C7.38181 23.7153 6.59531 23.5311 5.90414 23.2646C5.18121 22.993 4.5264 22.5667 3.98556 22.0155C3.43419 21.4741 3.00755 20.819 2.73539 20.0958C2.46781 19.4057 2.28581 18.6193 2.23164 17.4666C2.21958 17.2095 2.20874 16.9524 2.19914 16.6953L2.19372 16.4851C2.17375 15.6948 2.16472 14.9042 2.16664 14.1137V11.8863C2.16362 11.0962 2.17156 10.306 2.19047 9.516L2.19806 9.30583C2.20672 9.06317 2.21756 8.82267 2.23056 8.5345C2.28472 7.38075 2.46672 6.59533 2.73431 5.90417C3.00663 5.18117 3.4341 4.52665 3.98664 3.98667C4.52711 3.43498 5.18152 3.00795 5.90414 2.73542C6.59531 2.46783 7.38072 2.28583 8.53447 2.23167L9.30581 2.19917L9.51597 2.19375C10.3059 2.17379 11.0961 2.16476 11.8863 2.16667L14.1136 2.16775ZM13 7.58442C12.2823 7.57427 11.5697 7.70686 10.9037 7.97449C10.2377 8.24212 9.63151 8.63945 9.12039 9.14339C8.60927 9.64733 8.20341 10.2478 7.92639 10.91C7.64936 11.5722 7.50671 12.2828 7.50671 13.0005C7.50671 13.7183 7.64936 14.4289 7.92639 15.0911C8.20341 15.7533 8.60927 16.3538 9.12039 16.8577C9.63151 17.3616 10.2377 17.759 10.9037 18.0266C11.5697 18.2942 12.2823 18.4268 13 18.4167C14.4366 18.4167 15.8143 17.846 16.8301 16.8302C17.846 15.8143 18.4166 14.4366 18.4166 13C18.4166 11.5634 17.846 10.1857 16.8301 9.16984C15.8143 8.15402 14.4366 7.58442 13 7.58442ZM13 9.75108C13.4317 9.74313 13.8607 9.82128 14.2618 9.98097C14.663 10.1407 15.0283 10.3787 15.3365 10.6812C15.6446 10.9836 15.8894 11.3445 16.0565 11.7426C16.2237 12.1408 16.3098 12.5682 16.3098 13C16.3099 13.4318 16.2239 13.8593 16.057 14.2574C15.89 14.6556 15.6453 15.0166 15.3373 15.3191C15.0292 15.6217 14.664 15.8599 14.2628 16.0197C13.8617 16.1795 13.4328 16.2578 13.0011 16.25C12.1391 16.25 11.3125 15.9076 10.703 15.2981C10.0935 14.6886 9.75106 13.862 9.75106 13C9.75106 12.138 10.0935 11.3114 10.703 10.7019C11.3125 10.0924 12.1391 9.75 13.0011 9.75L13 9.75108ZM18.6875 5.95942C18.338 5.9734 18.0075 6.12208 17.7651 6.3743C17.5228 6.62652 17.3875 6.96273 17.3875 7.3125C17.3875 7.66227 17.5228 7.99848 17.7651 8.2507C18.0075 8.50292 18.338 8.6516 18.6875 8.66558C19.0466 8.66558 19.3911 8.52291 19.645 8.26896C19.899 8.015 20.0416 7.67056 20.0416 7.31142C20.0416 6.95227 19.899 6.60783 19.645 6.35388C19.3911 6.09992 19.0466 5.95725 18.6875 5.95725V5.95942Z" fill="#567AC5"/>
</g>
</svg>
