<svg width="26" height="26" viewBox="0 0 26 26" fill="none" xmlns="http://www.w3.org/2000/svg">
<path id="Vector" d="M2.94667 0C2.16516 0 1.41567 0.302388 0.863059 0.840642C0.310452 1.3789 0 2.10892 0 2.87013C0 3.63134 0.310452 4.36136 0.863059 4.89962C1.41567 5.43787 2.16516 5.74026 2.94667 5.74026C3.72817 5.74026 4.47767 5.43787 5.03027 4.89962C5.58288 4.36136 5.89333 3.63134 5.89333 2.87013C5.89333 2.10892 5.58288 1.3789 5.03027 0.840642C4.47767 0.302388 3.72817 0 2.94667 0ZM0.173333 8.1039C0.127362 8.1039 0.0832743 8.12168 0.050768 8.15335C0.0182617 8.18501 0 8.22795 0 8.27273V25.8312C0 25.9244 0.0776533 26 0.173333 26H5.72C5.76597 26 5.81006 25.9822 5.84257 25.9506C5.87507 25.9189 5.89333 25.8759 5.89333 25.8312V8.27273C5.89333 8.22795 5.87507 8.18501 5.84257 8.15335C5.81006 8.12168 5.76597 8.1039 5.72 8.1039H0.173333ZM9.18667 8.1039C9.1407 8.1039 9.09661 8.12168 9.0641 8.15335C9.0316 8.18501 9.01333 8.22795 9.01333 8.27273V25.8312C9.01333 25.9244 9.09099 26 9.18667 26H14.7333C14.7793 26 14.8234 25.9822 14.8559 25.9506C14.8884 25.9189 14.9067 25.8759 14.9067 25.8312V16.3766C14.9067 15.705 15.1806 15.0608 15.6682 14.5859C16.1558 14.111 16.8171 13.8442 17.5067 13.8442C18.1962 13.8442 18.8575 14.111 19.3451 14.5859C19.8327 15.0608 20.1067 15.705 20.1067 16.3766V25.8312C20.1067 25.9244 20.1843 26 20.28 26H25.8267C25.8726 26 25.9167 25.9822 25.9492 25.9506C25.9817 25.9189 26 25.8759 26 25.8312V14.1886C26 10.9105 23.0741 8.34701 19.7253 8.64281C18.6892 8.73468 17.6743 8.98444 16.7177 9.38296L14.9067 10.1393V8.27273C14.9067 8.22795 14.8884 8.18501 14.8559 8.15335C14.8234 8.12168 14.7793 8.1039 14.7333 8.1039H9.18667Z" fill="#567AC5"/>
</svg>
